<?xml version="1.0" standalone="no"?><!DOCTYPE svg PUBLIC "-//W3C//DTD SVG 1.1//EN" "http://www.w3.org/Graphics/SVG/1.1/DTD/svg11.dtd"><svg t="1775448315757" class="icon" viewBox="0 0 1024 1024" version="1.1" xmlns="http://www.w3.org/2000/svg" p-id="9162" xmlns:xlink="http://www.w3.org/1999/xlink" width="200" height="200"><path d="M844.416 128l-14.08 42.112c-19.392 58.24-68.8 129.536-148.352 215.296l-8.512 9.024 35.84 6.016 36.032 6.016-10.752 34.944c-47.232 153.408-197.44 240.064-443.712 262.4l-5.76-63.68c201.472-18.304 324.672-79.872 374.72-182.976l-57.088-9.6-61.376-10.24 43.968-43.968c74.752-74.688 127.552-138.176 158.4-189.568l5.824-10.112-9.728 0.64c-370.304 28.864-541.888 326.784-547.712 682.88L192 896H128C128 482.048 336.768 128 800 128h44.416z m-60.928 427.968c10.24 39.168 27.52 70.784 51.84 95.104 24.32 24.32 55.872 41.6 95.104 51.84 16 4.16 16 26.816 0 30.976-39.232 10.24-70.784 27.52-95.104 51.84-24.32 24.32-41.6 55.872-51.84 95.104-4.16 15.936-26.816 15.936-30.976 0-10.24-39.232-27.52-70.848-51.84-95.104-24.32-24.32-55.872-41.6-95.104-51.84-16-4.16-16-26.816 0-30.976 39.232-10.24 70.784-27.52 95.104-51.84 24.32-24.32 41.6-55.936 51.84-95.104 4.16-16 26.816-16 30.976 0z" fill="#222222" p-id="9163"></path></svg>