<?xml version="1.0" standalone="no"?><!DOCTYPE svg PUBLIC "-//W3C//DTD SVG 1.1//EN" "http://www.w3.org/Graphics/SVG/1.1/DTD/svg11.dtd"><svg t="1775447502097" class="icon" viewBox="0 0 1024 1024" version="1.1" xmlns="http://www.w3.org/2000/svg" p-id="8047" xmlns:xlink="http://www.w3.org/1999/xlink" width="200" height="200"><path d="M453.12 458.24c33.28 0 58.88-25.6 58.88-58.88s-25.6-58.88-58.88-58.88c-33.28 0-58.88 25.6-58.88 58.88 0 30.72 25.6 58.88 58.88 58.88zM860.16 399.36c0-33.28-25.6-58.88-58.88-58.88-33.28 0-58.88 25.6-58.88 58.88s25.6 58.88 58.88 58.88c33.28 0 58.88-28.16 58.88-58.88zM686.08 399.36c0-33.28-25.6-58.88-58.88-58.88-33.28 0-58.88 25.6-58.88 58.88s25.6 58.88 58.88 58.88 58.88-28.16 58.88-58.88zM79.36 793.6c2.56-12.8-7.68-23.04-20.48-25.6-12.8-2.56-23.04 7.68-25.6 20.48v5.12c0 30.72 12.8 58.88 35.84 81.92-35.84 25.6-61.44 66.56-66.56 110.08-2.56 12.8 7.68 23.04 17.92 25.6h2.56c10.24 0 20.48-7.68 23.04-20.48 5.12-33.28 23.04-64 51.2-84.48 10.24-7.68 17.92-17.92 17.92-30.72s-5.12-23.04-12.8-30.72c-15.36-12.8-25.6-30.72-23.04-51.2z" p-id="8048"></path><path d="M53.76 768c12.8 0 23.04-7.68 23.04-20.48v-2.56c0-35.84 28.16-66.56 66.56-66.56h38.4c35.84 0 66.56 30.72 66.56 66.56 2.56 12.8 12.8 20.48 25.6 20.48 10.24 0 17.92-10.24 20.48-20.48 0-61.44-48.64-110.08-110.08-110.08H143.36c-61.44 0-110.08 48.64-110.08 110.08 0 12.8 10.24 23.04 20.48 23.04zM258.56 875.52c23.04-20.48 35.84-51.2 35.84-79.36 2.56-12.8-7.68-23.04-20.48-25.6-12.8-2.56-23.04 7.68-25.6 20.48v5.12c0 20.48-10.24 38.4-25.6 51.2-17.92 12.8-17.92 38.4-5.12 53.76l7.68 7.68c28.16 17.92 46.08 48.64 51.2 84.48 2.56 10.24 10.24 20.48 23.04 20.48h2.56c12.8-2.56 20.48-12.8 20.48-25.6-5.12-46.08-30.72-87.04-64-112.64z" p-id="8049"></path><path d="M97.28 770.56v7.68c2.56 12.8 12.8 20.48 25.6 20.48 10.24 0 17.92-10.24 20.48-20.48v-7.68c2.56-12.8-7.68-23.04-20.48-25.6-12.8-2.56-23.04 7.68-25.6 20.48v5.12zM184.32 770.56v7.68c2.56 12.8 12.8 20.48 25.6 20.48 10.24 0 17.92-10.24 20.48-20.48v-7.68c2.56-12.8-7.68-23.04-20.48-25.6-12.8-2.56-23.04 7.68-25.6 20.48v5.12z" p-id="8050"></path><path d="M197.12 798.72c-10.24-5.12-23.04-2.56-28.16 7.68h-10.24c-7.68-10.24-20.48-12.8-30.72-7.68s-15.36 20.48-7.68 30.72c10.24 15.36 25.6 23.04 43.52 23.04s33.28-7.68 43.52-23.04c5.12-10.24 0-23.04-10.24-30.72zM627.2 12.8c-89.6 0-176.64 30.72-248.32 84.48-92.16 71.68-145.92 184.32-145.92 302.08 0 61.44 15.36 120.32 43.52 174.08 7.68 12.8 23.04 17.92 35.84 10.24 12.8-7.68 17.92-23.04 10.24-35.84-25.6-46.08-35.84-97.28-35.84-151.04 0-102.4 48.64-197.12 128-261.12 61.44-48.64 138.24-74.24 215.04-74.24 186.88-2.56 340.48 145.92 343.04 335.36-2.56 186.88-156.16 337.92-343.04 335.36-79.36 0-153.6-25.6-215.04-74.24-10.24-10.24-28.16-7.68-35.84 2.56-10.24 10.24-7.68 28.16 2.56 35.84 71.68 56.32 158.72 87.04 248.32 87.04 215.04 2.56 391.68-171.52 394.24-386.56C1018.88 184.32 842.24 10.24 627.2 12.8z" p-id="8051"></path></svg>