<?xml version="1.0" standalone="no"?><!DOCTYPE svg PUBLIC "-//W3C//DTD SVG 1.1//EN" "http://www.w3.org/Graphics/SVG/1.1/DTD/svg11.dtd"><svg t="1775447454247" class="icon" viewBox="0 0 1058 1024" version="1.1" xmlns="http://www.w3.org/2000/svg" p-id="6811" xmlns:xlink="http://www.w3.org/1999/xlink" width="206.640625" height="200"><path d="M327.70048 16.357114c27.909879 10.843149 62.332064 36.250763 86.039421 58.065381a451.59468 451.59468 0 0 1 108.688128-13.185012c41.062811 0 80.842409 5.453655 118.729269 15.815599 23.739438-22.392064 59.797719-49.403695 88.862489-60.695968a238.164304 238.164304 0 0 1 95.342714-16.136401q49.339534 1.700257 94.027422 22.680787 44.687887 21.01261 77.506055 57.904979a238.164304 238.164304 0 0 1 48.441285 83.729638c10.394024 31.214152 14.243663 63.230313 11.516835 96.048482q-4.106281 49.211213-27.236192 92.808369c-15.302313 28.872289-29.674297 55.306474-54.95359 75.902039 8.469205 36.250763 12.928369 74.169702 12.928369 113.147293 0 265.75338-208.265445 481.204817-465.164656 481.204816s-465.164656-215.451437-465.164656-481.204816c0-42.378104 5.293253-83.505076 15.238153-122.643068-19.02363-18.927389-31.374554-41.800658-44.431245-66.406264a238.164304 238.164304 0 0 1-27.236193-92.808369Q-3.208032 211.373386 12.383004 164.536117a238.164304 238.164304 0 0 1 48.441285-83.729638A238.164304 238.164304 0 0 1 138.266184 22.9015 238.164304 238.164304 0 0 1 232.325685 0.220713a238.164304 238.164304 0 0 1 95.374795 16.136401z m595.731563 526.085186q0-79.94416-28.423165-154.210104-30.797108-80.425365-89.792818-141.474216-58.771148-60.792208-135.86016-92.391324-70.833349-28.96853-146.927871-28.96853t-146.92787 29.00061q-77.089012 31.567036-135.86016 92.391325Q180.612208 307.774751 149.84718 388.232196q-28.423164 74.265943-28.423165 154.210104 0 79.91208 28.423165 154.178023 30.797108 80.425365 89.824899 141.474216 58.739068 60.792208 135.86016 92.391325 70.801269 29.00061 146.92787 29.00061 76.062441 0 146.895791-29.00061 77.121092-31.599116 135.86016-92.391325 59.027791-61.048851 89.824899-141.474216 28.391084-74.265943 28.391084-154.178023z m-136.501766 0.160402a64.192723 64.192723 0 0 0-30.92543-54.88943l-302.677829-181.317975-0.320804-0.192482a64.192723 64.192723 0 0 0-96.305124 54.88943V724.113158a64.160642 64.160642 0 0 0 96.305124 54.88943l0.320804-0.160402 302.581588-181.253814 0.096241-0.064161a64.224803 64.224803 0 0 0 30.92543-54.889429z m-45.554056-10.522346a21.429654 21.429654 0 0 1-7.506795 28.776048l-0.064161 0.032081-302.324946 181.093412a21.429654 21.429654 0 0 1-31.952-18.285783V361.509289a21.397574 21.397574 0 0 1 31.952-18.285783l302.389107 181.125493c3.111791 1.924819 5.710297 4.587486 7.506795 7.763438z" p-id="6812"></path></svg>